<mxfile host="Electron" agent="Mozilla/5.0 (Macintosh; Intel Mac OS X 10_15_7) AppleWebKit/537.36 (KHTML, like Gecko) draw.io/24.7.8 Chrome/128.0.6613.36 Electron/32.0.1 Safari/537.36" version="24.7.8">
  <diagram name="Page-1" id="2YBvvXClWsGukQMizWep">
    <mxGraphModel dx="1618" dy="586" grid="1" gridSize="10" guides="1" tooltips="1" connect="1" arrows="1" fold="1" page="1" pageScale="1" pageWidth="850" pageHeight="1100" math="0" shadow="0">
      <root>
        <mxCell id="0" />
        <mxCell id="1" parent="0" />
        <mxCell id="Xv-uowMnBE21GLggtnpt-47" style="edgeStyle=orthogonalEdgeStyle;rounded=0;orthogonalLoop=1;jettySize=auto;html=1;entryX=0.5;entryY=0;entryDx=0;entryDy=0;strokeColor=#0066CC;" parent="1" source="_0tyfMGEkezi1Wn5K47d-30" target="mKCn0pQEpmRzFZVJy1wr-6" edge="1">
          <mxGeometry relative="1" as="geometry" />
        </mxCell>
        <mxCell id="Xv-uowMnBE21GLggtnpt-48" value="gRPC/TLS/TCP" style="edgeLabel;html=1;align=center;verticalAlign=middle;resizable=0;points=[];fontColor=#0066CC;" parent="Xv-uowMnBE21GLggtnpt-47" vertex="1" connectable="0">
          <mxGeometry x="-0.0009" relative="1" as="geometry">
            <mxPoint y="-16" as="offset" />
          </mxGeometry>
        </mxCell>
        <mxCell id="Xv-uowMnBE21GLggtnpt-68" value="Create/DeleteVolume" style="edgeLabel;html=1;align=center;verticalAlign=middle;resizable=0;points=[];" parent="Xv-uowMnBE21GLggtnpt-47" vertex="1" connectable="0">
          <mxGeometry x="-0.8564" relative="1" as="geometry">
            <mxPoint y="36" as="offset" />
          </mxGeometry>
        </mxCell>
        <mxCell id="mKCn0pQEpmRzFZVJy1wr-146" value="" style="rounded=0;whiteSpace=wrap;html=1;verticalAlign=top;align=left;labelBackgroundColor=none;" parent="1" vertex="1">
          <mxGeometry x="110" y="220" width="390" height="580" as="geometry" />
        </mxCell>
        <mxCell id="mKCn0pQEpmRzFZVJy1wr-39" value="" style="rounded=0;whiteSpace=wrap;html=1;verticalAlign=top;align=left;labelBackgroundColor=none;" parent="1" vertex="1">
          <mxGeometry x="100" y="210" width="390" height="580" as="geometry" />
        </mxCell>
        <mxCell id="Xv-uowMnBE21GLggtnpt-5" style="edgeStyle=orthogonalEdgeStyle;rounded=0;orthogonalLoop=1;jettySize=auto;html=1;entryX=0.5;entryY=0;entryDx=0;entryDy=0;strokeColor=#0066CC;exitX=0.5;exitY=1;exitDx=0;exitDy=0;" parent="1" source="mKCn0pQEpmRzFZVJy1wr-2" target="mKCn0pQEpmRzFZVJy1wr-4" edge="1">
          <mxGeometry relative="1" as="geometry" />
        </mxCell>
        <mxCell id="Xv-uowMnBE21GLggtnpt-7" value="gRPC/unix" style="edgeLabel;html=1;align=center;verticalAlign=middle;resizable=0;points=[];fontColor=#0066CC;" parent="Xv-uowMnBE21GLggtnpt-5" vertex="1" connectable="0">
          <mxGeometry x="-0.017" relative="1" as="geometry">
            <mxPoint y="4" as="offset" />
          </mxGeometry>
        </mxCell>
        <mxCell id="mKCn0pQEpmRzFZVJy1wr-2" value="kubelet" style="rounded=0;whiteSpace=wrap;html=1;fontSize=11;fillColor=#f5f5f5;strokeColor=#666666;fontColor=#333333;" parent="1" vertex="1">
          <mxGeometry x="210" y="331" width="120" height="40" as="geometry" />
        </mxCell>
        <mxCell id="Xv-uowMnBE21GLggtnpt-4" style="edgeStyle=orthogonalEdgeStyle;rounded=0;orthogonalLoop=1;jettySize=auto;html=1;entryX=0.75;entryY=0;entryDx=0;entryDy=0;strokeColor=#0066CC;exitX=0.5;exitY=1;exitDx=0;exitDy=0;" parent="1" source="mKCn0pQEpmRzFZVJy1wr-4" target="_0tyfMGEkezi1Wn5K47d-60" edge="1">
          <mxGeometry relative="1" as="geometry" />
        </mxCell>
        <mxCell id="Xv-uowMnBE21GLggtnpt-21" value="gRPC/unix" style="edgeLabel;html=1;align=center;verticalAlign=middle;resizable=0;points=[];fontColor=#0066CC;" parent="Xv-uowMnBE21GLggtnpt-4" vertex="1" connectable="0">
          <mxGeometry x="-0.0324" relative="1" as="geometry">
            <mxPoint y="4" as="offset" />
          </mxGeometry>
        </mxCell>
        <mxCell id="qlmGw0hflqmHRQ1-sKof-2" value="Start/StopEndpoint" style="edgeLabel;html=1;align=center;verticalAlign=middle;resizable=0;points=[];" vertex="1" connectable="0" parent="Xv-uowMnBE21GLggtnpt-4">
          <mxGeometry x="0.7377" y="-2" relative="1" as="geometry">
            <mxPoint x="2" y="-32" as="offset" />
          </mxGeometry>
        </mxCell>
        <mxCell id="Xv-uowMnBE21GLggtnpt-31" style="edgeStyle=orthogonalEdgeStyle;rounded=0;orthogonalLoop=1;jettySize=auto;html=1;exitX=1;exitY=0.5;exitDx=0;exitDy=0;entryX=1;entryY=0.25;entryDx=0;entryDy=0;fontColor=#0066CC;strokeColor=#0066CC;" parent="1" source="mKCn0pQEpmRzFZVJy1wr-4" target="mKCn0pQEpmRzFZVJy1wr-47" edge="1">
          <mxGeometry relative="1" as="geometry">
            <Array as="points">
              <mxPoint x="430" y="449" />
              <mxPoint x="430" y="740" />
            </Array>
          </mxGeometry>
        </mxCell>
        <mxCell id="Xv-uowMnBE21GLggtnpt-32" value="gRPC/unix" style="edgeLabel;html=1;align=center;verticalAlign=middle;resizable=0;points=[];fontColor=#0066CC;" parent="Xv-uowMnBE21GLggtnpt-31" vertex="1" connectable="0">
          <mxGeometry x="-0.0224" relative="1" as="geometry">
            <mxPoint y="-90" as="offset" />
          </mxGeometry>
        </mxCell>
        <mxCell id="qlmGw0hflqmHRQ1-sKof-6" value="Start/StopEndpoint" style="edgeLabel;html=1;align=center;verticalAlign=middle;resizable=0;points=[];" vertex="1" connectable="0" parent="Xv-uowMnBE21GLggtnpt-31">
          <mxGeometry x="-0.2956" y="1" relative="1" as="geometry">
            <mxPoint y="-35" as="offset" />
          </mxGeometry>
        </mxCell>
        <mxCell id="mKCn0pQEpmRzFZVJy1wr-4" value="nbs-csi-driver-node" style="rounded=0;whiteSpace=wrap;html=1;fontSize=11;fillColor=#f5f5f5;fontColor=#333333;strokeColor=#666666;" parent="1" vertex="1">
          <mxGeometry x="210" y="429" width="120" height="40" as="geometry" />
        </mxCell>
        <mxCell id="Xv-uowMnBE21GLggtnpt-45" value="" style="edgeStyle=orthogonalEdgeStyle;rounded=0;orthogonalLoop=1;jettySize=auto;html=1;entryX=0;entryY=0.75;entryDx=0;entryDy=0;exitX=0;exitY=0.5;exitDx=0;exitDy=0;strokeColor=#CC0066;" parent="1" source="mKCn0pQEpmRzFZVJy1wr-6" target="mKCn0pQEpmRzFZVJy1wr-110" edge="1">
          <mxGeometry x="-0.0319" relative="1" as="geometry">
            <mxPoint x="-97" y="370.5" as="sourcePoint" />
            <mxPoint x="-97" y="560" as="targetPoint" />
            <Array as="points">
              <mxPoint x="-170" y="351" />
              <mxPoint x="-170" y="560" />
            </Array>
            <mxPoint as="offset" />
          </mxGeometry>
        </mxCell>
        <mxCell id="Xv-uowMnBE21GLggtnpt-59" value="IC/TCP" style="edgeLabel;html=1;align=center;verticalAlign=middle;resizable=0;points=[];fontColor=#CC0066;" parent="Xv-uowMnBE21GLggtnpt-45" vertex="1" connectable="0">
          <mxGeometry x="0.0309" y="-1" relative="1" as="geometry">
            <mxPoint as="offset" />
          </mxGeometry>
        </mxCell>
        <mxCell id="Xv-uowMnBE21GLggtnpt-77" value="Get/Put" style="edgeLabel;html=1;align=center;verticalAlign=middle;resizable=0;points=[];" parent="Xv-uowMnBE21GLggtnpt-45" vertex="1" connectable="0">
          <mxGeometry x="-0.0863" relative="1" as="geometry">
            <mxPoint x="-1" y="7" as="offset" />
          </mxGeometry>
        </mxCell>
        <mxCell id="Xv-uowMnBE21GLggtnpt-50" style="edgeStyle=orthogonalEdgeStyle;rounded=0;orthogonalLoop=1;jettySize=auto;html=1;entryX=0;entryY=0.25;entryDx=0;entryDy=0;exitX=0;exitY=0.75;exitDx=0;exitDy=0;strokeColor=#0066CC;" parent="1" source="mKCn0pQEpmRzFZVJy1wr-6" target="mKCn0pQEpmRzFZVJy1wr-110" edge="1">
          <mxGeometry relative="1" as="geometry">
            <Array as="points">
              <mxPoint x="-120" y="361" />
              <mxPoint x="-120" y="540" />
            </Array>
          </mxGeometry>
        </mxCell>
        <mxCell id="Xv-uowMnBE21GLggtnpt-75" value="IC/TCP" style="edgeLabel;html=1;align=center;verticalAlign=middle;resizable=0;points=[];fontColor=#0066CC;" parent="Xv-uowMnBE21GLggtnpt-50" vertex="1" connectable="0">
          <mxGeometry x="-0.4659" y="-1" relative="1" as="geometry">
            <mxPoint y="2" as="offset" />
          </mxGeometry>
        </mxCell>
        <mxCell id="Xv-uowMnBE21GLggtnpt-76" value="ModifyScheme" style="edgeLabel;html=1;align=center;verticalAlign=middle;resizable=0;points=[];" parent="Xv-uowMnBE21GLggtnpt-50" vertex="1" connectable="0">
          <mxGeometry x="-0.6198" y="-1" relative="1" as="geometry">
            <mxPoint y="6" as="offset" />
          </mxGeometry>
        </mxCell>
        <mxCell id="mKCn0pQEpmRzFZVJy1wr-6" value="nbs-server-node" style="rounded=0;whiteSpace=wrap;html=1;fontSize=11;fillColor=#f5f5f5;fontColor=#333333;strokeColor=#666666;" parent="1" vertex="1">
          <mxGeometry x="-100" y="330" width="140" height="41" as="geometry" />
        </mxCell>
        <mxCell id="mKCn0pQEpmRzFZVJy1wr-28" value="Publish/UnpublishVolume" style="text;html=1;align=center;verticalAlign=middle;resizable=0;points=[];autosize=1;strokeColor=none;fillColor=none;fontSize=11;labelBackgroundColor=default;labelBorderColor=none;" parent="1" vertex="1">
          <mxGeometry x="195" y="376" width="150" height="30" as="geometry" />
        </mxCell>
        <mxCell id="mKCn0pQEpmRzFZVJy1wr-111" style="edgeStyle=orthogonalEdgeStyle;rounded=0;orthogonalLoop=1;jettySize=auto;html=1;entryX=1;entryY=0.75;entryDx=0;entryDy=0;strokeColor=#CC0066;startArrow=none;startFill=0;exitX=0;exitY=0.25;exitDx=0;exitDy=0;" parent="1" source="mKCn0pQEpmRzFZVJy1wr-47" target="mKCn0pQEpmRzFZVJy1wr-110" edge="1">
          <mxGeometry relative="1" as="geometry">
            <mxPoint x="30" y="740" as="sourcePoint" />
            <mxPoint x="-80" y="570" as="targetPoint" />
            <Array as="points">
              <mxPoint x="70" y="740" />
              <mxPoint x="70" y="560" />
            </Array>
          </mxGeometry>
        </mxCell>
        <mxCell id="mKCn0pQEpmRzFZVJy1wr-112" value="IC/TCP" style="edgeLabel;html=1;align=center;verticalAlign=middle;resizable=0;points=[];fontColor=#CC0066;" parent="mKCn0pQEpmRzFZVJy1wr-111" vertex="1" connectable="0">
          <mxGeometry x="0.0109" y="-1" relative="1" as="geometry">
            <mxPoint x="84" y="3" as="offset" />
          </mxGeometry>
        </mxCell>
        <mxCell id="Xv-uowMnBE21GLggtnpt-63" value="IC/TCP" style="edgeLabel;html=1;align=center;verticalAlign=middle;resizable=0;points=[];fontColor=#CC0066;" parent="mKCn0pQEpmRzFZVJy1wr-111" vertex="1" connectable="0">
          <mxGeometry x="0.3811" y="1" relative="1" as="geometry">
            <mxPoint y="99" as="offset" />
          </mxGeometry>
        </mxCell>
        <mxCell id="Xv-uowMnBE21GLggtnpt-70" value="Get/Put" style="edgeLabel;html=1;align=center;verticalAlign=middle;resizable=0;points=[];" parent="mKCn0pQEpmRzFZVJy1wr-111" vertex="1" connectable="0">
          <mxGeometry x="0.2938" y="1" relative="1" as="geometry">
            <mxPoint y="75" as="offset" />
          </mxGeometry>
        </mxCell>
        <mxCell id="_0tyfMGEkezi1Wn5K47d-6" style="edgeStyle=orthogonalEdgeStyle;rounded=0;orthogonalLoop=1;jettySize=auto;html=1;exitX=0;exitY=0.75;exitDx=0;exitDy=0;strokeColor=#CC0066;entryX=0.5;entryY=1;entryDx=0;entryDy=0;" parent="1" source="mKCn0pQEpmRzFZVJy1wr-47" target="_0tyfMGEkezi1Wn5K47d-5" edge="1">
          <mxGeometry relative="1" as="geometry">
            <mxPoint x="120" y="750" as="sourcePoint" />
            <mxPoint x="24.999999999999773" y="640" as="targetPoint" />
            <Array as="points" />
          </mxGeometry>
        </mxCell>
        <mxCell id="_0tyfMGEkezi1Wn5K47d-7" value="&lt;font color=&quot;#cc0066&quot;&gt;IC/TCP&lt;/font&gt;" style="edgeLabel;html=1;align=center;verticalAlign=middle;resizable=0;points=[];" parent="_0tyfMGEkezi1Wn5K47d-6" vertex="1" connectable="0">
          <mxGeometry x="-0.0003" relative="1" as="geometry">
            <mxPoint x="44" as="offset" />
          </mxGeometry>
        </mxCell>
        <mxCell id="mKCn0pQEpmRzFZVJy1wr-110" value="YDB AZ" style="rounded=0;whiteSpace=wrap;html=1;fontSize=11;fillColor=#f5f5f5;fontColor=#333333;strokeColor=#666666;" parent="1" vertex="1">
          <mxGeometry x="-100" y="530" width="140" height="40" as="geometry" />
        </mxCell>
        <mxCell id="_0tyfMGEkezi1Wn5K47d-5" value="nbs-disk-agent-node" style="rounded=0;whiteSpace=wrap;html=1;fontSize=11;fillColor=#f5f5f5;fontColor=#333333;strokeColor=#666666;" parent="1" vertex="1">
          <mxGeometry x="-100" y="630" width="140" height="40" as="geometry" />
        </mxCell>
        <mxCell id="_0tyfMGEkezi1Wn5K47d-8" value="Read/WriteDeviceBlocks" style="text;html=1;align=center;verticalAlign=middle;resizable=0;points=[];autosize=1;strokeColor=none;fillColor=none;fontSize=11;labelBackgroundColor=default;" parent="1" vertex="1">
          <mxGeometry x="-25" y="758" width="140" height="30" as="geometry" />
        </mxCell>
        <mxCell id="_0tyfMGEkezi1Wn5K47d-42" style="edgeStyle=orthogonalEdgeStyle;rounded=0;orthogonalLoop=1;jettySize=auto;html=1;entryX=1;entryY=0.25;entryDx=0;entryDy=0;strokeColor=#0066CC;exitX=0;exitY=0.25;exitDx=0;exitDy=0;" parent="1" source="_0tyfMGEkezi1Wn5K47d-29" target="_0tyfMGEkezi1Wn5K47d-30" edge="1">
          <mxGeometry relative="1" as="geometry" />
        </mxCell>
        <mxCell id="Xv-uowMnBE21GLggtnpt-58" value="gRPC/TLS/TCP" style="edgeLabel;html=1;align=center;verticalAlign=middle;resizable=0;points=[];fontColor=#0066CC;" parent="_0tyfMGEkezi1Wn5K47d-42" vertex="1" connectable="0">
          <mxGeometry x="0.016" y="-3" relative="1" as="geometry">
            <mxPoint x="17" y="3" as="offset" />
          </mxGeometry>
        </mxCell>
        <mxCell id="qlmGw0hflqmHRQ1-sKof-3" value="Create/DeleteVolume&lt;div&gt;Create/DeleteFilesystem&lt;/div&gt;" style="edgeLabel;html=1;align=center;verticalAlign=middle;resizable=0;points=[];labelBackgroundColor=none;" vertex="1" connectable="0" parent="_0tyfMGEkezi1Wn5K47d-42">
          <mxGeometry x="-0.4365" y="-3" relative="1" as="geometry">
            <mxPoint x="-22" y="23" as="offset" />
          </mxGeometry>
        </mxCell>
        <mxCell id="VRwGNVWa2ceTCC_4Sq0K-13" style="edgeStyle=orthogonalEdgeStyle;rounded=0;orthogonalLoop=1;jettySize=auto;html=1;strokeColor=#0066CC;entryX=0.5;entryY=0;entryDx=0;entryDy=0;" parent="1" source="_0tyfMGEkezi1Wn5K47d-29" target="VRwGNVWa2ceTCC_4Sq0K-12" edge="1">
          <mxGeometry relative="1" as="geometry" />
        </mxCell>
        <mxCell id="Xv-uowMnBE21GLggtnpt-13" value="gRPC/TLS/TCP" style="edgeLabel;html=1;align=center;verticalAlign=middle;resizable=0;points=[];fontColor=#0066CC;" parent="VRwGNVWa2ceTCC_4Sq0K-13" vertex="1" connectable="0">
          <mxGeometry x="-0.0271" y="-1" relative="1" as="geometry">
            <mxPoint x="1" y="-12" as="offset" />
          </mxGeometry>
        </mxCell>
        <mxCell id="_0tyfMGEkezi1Wn5K47d-29" value="compute-api" style="rounded=0;whiteSpace=wrap;html=1;fontSize=11;fillColor=#fff2cc;strokeColor=#d6b656;" parent="1" vertex="1">
          <mxGeometry x="210" y="140" width="120" height="40" as="geometry" />
        </mxCell>
        <mxCell id="VRwGNVWa2ceTCC_4Sq0K-3" style="edgeStyle=orthogonalEdgeStyle;rounded=0;orthogonalLoop=1;jettySize=auto;html=1;entryX=0.5;entryY=1;entryDx=0;entryDy=0;strokeColor=#0066CC;exitX=0.5;exitY=0;exitDx=0;exitDy=0;" parent="1" source="_0tyfMGEkezi1Wn5K47d-30" target="_0tyfMGEkezi1Wn5K47d-32" edge="1">
          <mxGeometry relative="1" as="geometry" />
        </mxCell>
        <mxCell id="VRwGNVWa2ceTCC_4Sq0K-9" value="gRPC/TLS/TCP" style="edgeLabel;html=1;align=center;verticalAlign=middle;resizable=0;points=[];fontColor=#0066CC;" parent="VRwGNVWa2ceTCC_4Sq0K-3" vertex="1" connectable="0">
          <mxGeometry relative="1" as="geometry">
            <mxPoint as="offset" />
          </mxGeometry>
        </mxCell>
        <mxCell id="qlmGw0hflqmHRQ1-sKof-4" value="TransferFromImageToDisk&lt;div&gt;TransferFromDiskToImage&lt;/div&gt;&lt;div&gt;TransferFromUrlToImage&lt;/div&gt;" style="edgeLabel;html=1;align=center;verticalAlign=middle;resizable=0;points=[];labelBackgroundColor=none;" vertex="1" connectable="0" parent="VRwGNVWa2ceTCC_4Sq0K-3">
          <mxGeometry x="-0.4267" relative="1" as="geometry">
            <mxPoint x="110" y="-14" as="offset" />
          </mxGeometry>
        </mxCell>
        <mxCell id="Xv-uowMnBE21GLggtnpt-38" style="edgeStyle=orthogonalEdgeStyle;rounded=0;orthogonalLoop=1;jettySize=auto;html=1;exitX=1;exitY=0.75;exitDx=0;exitDy=0;strokeColor=#0066CC;entryX=1;entryY=0.25;entryDx=0;entryDy=0;" parent="1" source="_0tyfMGEkezi1Wn5K47d-30" target="_0tyfMGEkezi1Wn5K47d-61" edge="1">
          <mxGeometry relative="1" as="geometry">
            <mxPoint x="60" y="439" as="targetPoint" />
            <Array as="points">
              <mxPoint x="70" y="160" />
              <mxPoint x="70" y="430" />
            </Array>
          </mxGeometry>
        </mxCell>
        <mxCell id="Xv-uowMnBE21GLggtnpt-57" value="gRPC/TLS/TCP" style="edgeLabel;html=1;align=center;verticalAlign=middle;resizable=0;points=[];fontColor=#0066CC;" parent="Xv-uowMnBE21GLggtnpt-38" vertex="1" connectable="0">
          <mxGeometry x="-0.0027" relative="1" as="geometry">
            <mxPoint y="-15" as="offset" />
          </mxGeometry>
        </mxCell>
        <mxCell id="Xv-uowMnBE21GLggtnpt-67" value="Create/DeleteFilesystem" style="edgeLabel;html=1;align=center;verticalAlign=middle;resizable=0;points=[];" parent="Xv-uowMnBE21GLggtnpt-38" vertex="1" connectable="0">
          <mxGeometry x="-0.4368" y="-1" relative="1" as="geometry">
            <mxPoint x="1" y="46" as="offset" />
          </mxGeometry>
        </mxCell>
        <mxCell id="_0tyfMGEkezi1Wn5K47d-30" value="disk-manager-controlplane&lt;span style=&quot;color: rgba(0, 0, 0, 0); font-family: monospace; font-size: 0px; text-align: start; text-wrap: nowrap;&quot;&gt;%3CmxGraphModel%3E%3Croot%3E%3CmxCell%20id%3D%220%22%2F%3E%3CmxCell%20id%3D%221%22%20parent%3D%220%22%2F%3E%3CmxCell%20id%3D%222%22%20value%3D%22kubelet%22%20style%3D%22rounded%3D0%3BwhiteSpace%3Dwrap%3Bhtml%3D1%3BfontSize%3D11%3BfillColor%3D%23f5f5f5%3BstrokeColor%3D%23666666%3BfontColor%3D%23333333%3B%22%20vertex%3D%221%22%20parent%3D%221%22%3E%3CmxGeometry%20x%3D%22180%22%20y%3D%22360%22%20width%3D%22110%22%20height%3D%2240%22%20as%3D%22geometry%22%2F%3E%3C%2FmxCell%3E%3C%2Froot%3E%3C%2FmxGraphModel%3E&lt;/span&gt;" style="rounded=0;whiteSpace=wrap;html=1;fontSize=11;fillColor=#f5f5f5;strokeColor=#666666;fontColor=#333333;" parent="1" vertex="1">
          <mxGeometry x="-100" y="140" width="140" height="40" as="geometry" />
        </mxCell>
        <mxCell id="VRwGNVWa2ceTCC_4Sq0K-6" style="edgeStyle=orthogonalEdgeStyle;rounded=0;orthogonalLoop=1;jettySize=auto;html=1;entryX=0;entryY=0.5;entryDx=0;entryDy=0;strokeColor=#CC0066;exitX=1;exitY=0.5;exitDx=0;exitDy=0;" parent="1" source="_0tyfMGEkezi1Wn5K47d-32" target="VRwGNVWa2ceTCC_4Sq0K-11" edge="1">
          <mxGeometry relative="1" as="geometry">
            <Array as="points" />
            <mxPoint x="50" y="89.69" as="sourcePoint" />
            <mxPoint x="160" y="89.69" as="targetPoint" />
          </mxGeometry>
        </mxCell>
        <mxCell id="VRwGNVWa2ceTCC_4Sq0K-10" value="TLS/TCP" style="edgeLabel;html=1;align=center;verticalAlign=middle;resizable=0;points=[];fontColor=#CC0066;" parent="VRwGNVWa2ceTCC_4Sq0K-6" vertex="1" connectable="0">
          <mxGeometry x="0.2934" y="1" relative="1" as="geometry">
            <mxPoint x="-20" y="1" as="offset" />
          </mxGeometry>
        </mxCell>
        <mxCell id="Xv-uowMnBE21GLggtnpt-39" style="edgeStyle=orthogonalEdgeStyle;rounded=0;orthogonalLoop=1;jettySize=auto;html=1;entryX=0;entryY=0.25;entryDx=0;entryDy=0;strokeColor=#CC0066;exitX=0;exitY=0.5;exitDx=0;exitDy=0;" parent="1" source="_0tyfMGEkezi1Wn5K47d-32" target="mKCn0pQEpmRzFZVJy1wr-6" edge="1">
          <mxGeometry relative="1" as="geometry">
            <mxPoint x="-140.04" y="85.85" as="sourcePoint" />
            <mxPoint x="-140.04" y="336.10000000000025" as="targetPoint" />
            <Array as="points">
              <mxPoint x="-170" y="60" />
              <mxPoint x="-170" y="340" />
            </Array>
          </mxGeometry>
        </mxCell>
        <mxCell id="Xv-uowMnBE21GLggtnpt-60" value="gRPC/TLS/TCP" style="edgeLabel;html=1;align=center;verticalAlign=middle;resizable=0;points=[];fontColor=#CC0066;" parent="Xv-uowMnBE21GLggtnpt-39" vertex="1" connectable="0">
          <mxGeometry x="-0.0073" y="-1" relative="1" as="geometry">
            <mxPoint y="17" as="offset" />
          </mxGeometry>
        </mxCell>
        <mxCell id="Xv-uowMnBE21GLggtnpt-64" value="Read/WriteBlocks" style="edgeLabel;html=1;align=center;verticalAlign=middle;resizable=0;points=[];" parent="Xv-uowMnBE21GLggtnpt-39" vertex="1" connectable="0">
          <mxGeometry x="-0.1064" y="4" relative="1" as="geometry">
            <mxPoint x="-4" y="25" as="offset" />
          </mxGeometry>
        </mxCell>
        <mxCell id="_0tyfMGEkezi1Wn5K47d-32" value="disk-manager-dataplane&lt;span style=&quot;color: rgba(0, 0, 0, 0); font-family: monospace; font-size: 0px; text-align: start; text-wrap: nowrap;&quot;&gt;%3CmxGraphModel%3E%3Croot%3E%3CmxCell%20id%3D%220%22%2F%3E%3CmxCell%20id%3D%221%22%20parent%3D%220%22%2F%3E%3CmxCell%20id%3D%222%22%20value%3D%22kubelet%22%20style%3D%22rounded%3D0%3BwhiteSpace%3Dwrap%3Bhtml%3D1%3BfontSize%3D11%3BfillColor%3D%23f5f5f5%3BstrokeColor%3D%23666666%3BfontColor%3D%23333333%3B%22%20vertex%3D%221%22%20parent%3D%221%22%3E%3CmxGeometry%20x%3D%22180%22%20y%3D%22360%22%20width%3D%22110%22%20height%3D%2240%22%20as%3D%22geometry%22%2F%3E%3C%2FmxCell%3E%3C%2Froot%3E%3C%2FmxGraphModel%3E&lt;/span&gt;" style="rounded=0;whiteSpace=wrap;html=1;fontSize=11;fillColor=#f5f5f5;strokeColor=#666666;fontColor=#333333;" parent="1" vertex="1">
          <mxGeometry x="-100" y="40" width="140" height="40" as="geometry" />
        </mxCell>
        <mxCell id="mKCn0pQEpmRzFZVJy1wr-7" value="" style="rounded=0;whiteSpace=wrap;html=1;fontSize=11;fillColor=#f5f5f5;fontColor=#333333;strokeColor=#666666;" parent="1" vertex="1">
          <mxGeometry x="110" y="620" width="300" height="60" as="geometry" />
        </mxCell>
        <mxCell id="_0tyfMGEkezi1Wn5K47d-53" style="edgeStyle=orthogonalEdgeStyle;rounded=0;orthogonalLoop=1;jettySize=auto;html=1;exitX=0.75;exitY=1;exitDx=0;exitDy=0;entryX=0.75;entryY=0;entryDx=0;entryDy=0;strokeColor=#CC0066;" parent="1" source="_0tyfMGEkezi1Wn5K47d-24" target="mKCn0pQEpmRzFZVJy1wr-47" edge="1">
          <mxGeometry relative="1" as="geometry">
            <mxPoint x="298" y="640" as="sourcePoint" />
            <mxPoint x="298" y="580" as="targetPoint" />
          </mxGeometry>
        </mxCell>
        <mxCell id="_0tyfMGEkezi1Wn5K47d-56" value="&lt;font color=&quot;#cc0066&quot;&gt;eventfd+shmem&lt;/font&gt;" style="edgeLabel;html=1;align=center;verticalAlign=middle;resizable=0;points=[];" parent="_0tyfMGEkezi1Wn5K47d-53" vertex="1" connectable="0">
          <mxGeometry x="0.0296" relative="1" as="geometry">
            <mxPoint y="1" as="offset" />
          </mxGeometry>
        </mxCell>
        <mxCell id="VRwGNVWa2ceTCC_4Sq0K-44" style="edgeStyle=orthogonalEdgeStyle;rounded=0;orthogonalLoop=1;jettySize=auto;html=1;exitX=0.25;exitY=0;exitDx=0;exitDy=0;entryX=0.25;entryY=1;entryDx=0;entryDy=0;strokeColor=#CC0066;" parent="1" source="_0tyfMGEkezi1Wn5K47d-24" target="_0tyfMGEkezi1Wn5K47d-60" edge="1">
          <mxGeometry relative="1" as="geometry" />
        </mxCell>
        <mxCell id="VRwGNVWa2ceTCC_4Sq0K-45" style="edgeStyle=orthogonalEdgeStyle;rounded=0;orthogonalLoop=1;jettySize=auto;html=1;exitX=0.75;exitY=0;exitDx=0;exitDy=0;strokeColor=#CC0066;entryX=0.75;entryY=1;entryDx=0;entryDy=0;" parent="1" source="_0tyfMGEkezi1Wn5K47d-24" target="_0tyfMGEkezi1Wn5K47d-60" edge="1">
          <mxGeometry relative="1" as="geometry">
            <mxPoint x="-90" y="860" as="targetPoint" />
          </mxGeometry>
        </mxCell>
        <mxCell id="Xv-uowMnBE21GLggtnpt-18" value="eventfd+shmem" style="edgeLabel;html=1;align=center;verticalAlign=middle;resizable=0;points=[];fontColor=#CC0066;" parent="VRwGNVWa2ceTCC_4Sq0K-45" vertex="1" connectable="0">
          <mxGeometry x="0.0167" relative="1" as="geometry">
            <mxPoint y="-2" as="offset" />
          </mxGeometry>
        </mxCell>
        <mxCell id="_0tyfMGEkezi1Wn5K47d-24" value="QEMU" style="rounded=0;whiteSpace=wrap;html=1;" parent="1" vertex="1">
          <mxGeometry x="120" y="630" width="200" height="40" as="geometry" />
        </mxCell>
        <mxCell id="_0tyfMGEkezi1Wn5K47d-28" style="edgeStyle=orthogonalEdgeStyle;rounded=0;orthogonalLoop=1;jettySize=auto;html=1;entryX=0.25;entryY=0;entryDx=0;entryDy=0;strokeColor=#CC0066;exitX=0.25;exitY=1;exitDx=0;exitDy=0;" parent="1" source="_0tyfMGEkezi1Wn5K47d-24" target="mKCn0pQEpmRzFZVJy1wr-47" edge="1">
          <mxGeometry relative="1" as="geometry" />
        </mxCell>
        <mxCell id="_0tyfMGEkezi1Wn5K47d-44" value="&lt;font color=&quot;#cc0066&quot;&gt;vhost-user/unix&lt;/font&gt;" style="edgeLabel;html=1;align=center;verticalAlign=middle;resizable=0;points=[];" parent="_0tyfMGEkezi1Wn5K47d-28" vertex="1" connectable="0">
          <mxGeometry x="-0.1592" y="-1" relative="1" as="geometry">
            <mxPoint x="1" y="7" as="offset" />
          </mxGeometry>
        </mxCell>
        <mxCell id="mKCn0pQEpmRzFZVJy1wr-47" value="nbs-server-node" style="rounded=0;whiteSpace=wrap;html=1;fontSize=11;fillColor=#f5f5f5;fontColor=#333333;strokeColor=#666666;" parent="1" vertex="1">
          <mxGeometry x="120" y="730" width="200" height="40" as="geometry" />
        </mxCell>
        <mxCell id="VRwGNVWa2ceTCC_4Sq0K-38" style="edgeStyle=orthogonalEdgeStyle;rounded=0;orthogonalLoop=1;jettySize=auto;html=1;strokeColor=#CC0066;entryX=1;entryY=0.25;entryDx=0;entryDy=0;exitX=0;exitY=0.25;exitDx=0;exitDy=0;" parent="1" source="_0tyfMGEkezi1Wn5K47d-60" target="mKCn0pQEpmRzFZVJy1wr-110" edge="1">
          <mxGeometry relative="1" as="geometry">
            <Array as="points">
              <mxPoint x="80" y="540" />
              <mxPoint x="80" y="540" />
            </Array>
          </mxGeometry>
        </mxCell>
        <mxCell id="VRwGNVWa2ceTCC_4Sq0K-57" value="IC/TCP" style="edgeLabel;html=1;align=center;verticalAlign=middle;resizable=0;points=[];fontColor=#CC0066;" parent="VRwGNVWa2ceTCC_4Sq0K-38" vertex="1" connectable="0">
          <mxGeometry x="0.0203" relative="1" as="geometry">
            <mxPoint x="5" y="1" as="offset" />
          </mxGeometry>
        </mxCell>
        <mxCell id="qlmGw0hflqmHRQ1-sKof-7" value="Get/Put" style="edgeLabel;html=1;align=center;verticalAlign=middle;resizable=0;points=[];" vertex="1" connectable="0" parent="VRwGNVWa2ceTCC_4Sq0K-38">
          <mxGeometry x="-0.9194" y="1" relative="1" as="geometry">
            <mxPoint x="-33" y="-13" as="offset" />
          </mxGeometry>
        </mxCell>
        <mxCell id="Xv-uowMnBE21GLggtnpt-9" style="edgeStyle=orthogonalEdgeStyle;rounded=0;orthogonalLoop=1;jettySize=auto;html=1;exitX=0.25;exitY=0;exitDx=0;exitDy=0;entryX=1;entryY=0.75;entryDx=0;entryDy=0;strokeColor=#CC0066;" parent="1" source="_0tyfMGEkezi1Wn5K47d-60" target="_0tyfMGEkezi1Wn5K47d-61" edge="1">
          <mxGeometry relative="1" as="geometry" />
        </mxCell>
        <mxCell id="Xv-uowMnBE21GLggtnpt-11" value="IC/TCP" style="edgeLabel;html=1;align=center;verticalAlign=middle;resizable=0;points=[];fontColor=#CC0066;" parent="Xv-uowMnBE21GLggtnpt-9" vertex="1" connectable="0">
          <mxGeometry x="-0.0101" relative="1" as="geometry">
            <mxPoint x="-6" as="offset" />
          </mxGeometry>
        </mxCell>
        <mxCell id="Xv-uowMnBE21GLggtnpt-79" value="Read/Write/..." style="edgeLabel;html=1;align=center;verticalAlign=middle;resizable=0;points=[];" parent="Xv-uowMnBE21GLggtnpt-9" vertex="1" connectable="0">
          <mxGeometry x="0.5317" y="-1" relative="1" as="geometry">
            <mxPoint x="53" y="-11" as="offset" />
          </mxGeometry>
        </mxCell>
        <mxCell id="_0tyfMGEkezi1Wn5K47d-60" value="nfs-vhost-node" style="rounded=0;whiteSpace=wrap;html=1;fontSize=11;fillColor=#f5f5f5;strokeColor=#666666;fontColor=#333333;" parent="1" vertex="1">
          <mxGeometry x="120" y="530" width="200" height="40" as="geometry" />
        </mxCell>
        <mxCell id="VRwGNVWa2ceTCC_4Sq0K-11" value="YDB GLOBAL" style="rounded=0;whiteSpace=wrap;html=1;fontSize=11;fillColor=#f5f5f5;fontColor=#333333;strokeColor=#666666;" parent="1" vertex="1">
          <mxGeometry x="210" y="40" width="120" height="40" as="geometry" />
        </mxCell>
        <mxCell id="VRwGNVWa2ceTCC_4Sq0K-14" style="edgeStyle=orthogonalEdgeStyle;rounded=0;orthogonalLoop=1;jettySize=auto;html=1;entryX=0.5;entryY=0;entryDx=0;entryDy=0;strokeColor=#0066CC;" parent="1" source="VRwGNVWa2ceTCC_4Sq0K-12" target="mKCn0pQEpmRzFZVJy1wr-2" edge="1">
          <mxGeometry relative="1" as="geometry" />
        </mxCell>
        <mxCell id="Xv-uowMnBE21GLggtnpt-12" value="gRPC/TLS/TCP" style="edgeLabel;html=1;align=center;verticalAlign=middle;resizable=0;points=[];fontColor=#0066CC;" parent="VRwGNVWa2ceTCC_4Sq0K-14" vertex="1" connectable="0">
          <mxGeometry x="-0.0165" relative="1" as="geometry">
            <mxPoint y="-2" as="offset" />
          </mxGeometry>
        </mxCell>
        <mxCell id="VRwGNVWa2ceTCC_4Sq0K-12" value="kubevirt" style="rounded=0;whiteSpace=wrap;html=1;fontSize=11;fillColor=#f5f5f5;fontColor=#333333;strokeColor=#666666;" parent="1" vertex="1">
          <mxGeometry x="210" y="240" width="120" height="41" as="geometry" />
        </mxCell>
        <mxCell id="VRwGNVWa2ceTCC_4Sq0K-47" value="&lt;font color=&quot;#cc0066&quot;&gt;vhost-user/unix&lt;/font&gt;" style="edgeLabel;html=1;align=center;verticalAlign=middle;resizable=0;points=[];" parent="1" vertex="1" connectable="0">
          <mxGeometry x="169.99999999999977" y="597.9945454545455" as="geometry" />
        </mxCell>
        <mxCell id="Xv-uowMnBE21GLggtnpt-17" value="instance pod" style="rounded=0;whiteSpace=wrap;html=1;fillColor=#f5f5f5;fontColor=#333333;strokeColor=#666666;" parent="1" vertex="1">
          <mxGeometry x="330" y="620" width="80" height="20" as="geometry" />
        </mxCell>
        <mxCell id="Xv-uowMnBE21GLggtnpt-43" style="edgeStyle=orthogonalEdgeStyle;rounded=0;orthogonalLoop=1;jettySize=auto;html=1;exitX=0.75;exitY=1;exitDx=0;exitDy=0;entryX=0.75;entryY=0;entryDx=0;entryDy=0;strokeColor=#CC0066;" parent="1" source="_0tyfMGEkezi1Wn5K47d-61" target="mKCn0pQEpmRzFZVJy1wr-110" edge="1">
          <mxGeometry relative="1" as="geometry" />
        </mxCell>
        <mxCell id="Xv-uowMnBE21GLggtnpt-62" value="IC/TCP" style="edgeLabel;html=1;align=center;verticalAlign=middle;resizable=0;points=[];fontColor=#CC0066;" parent="Xv-uowMnBE21GLggtnpt-43" vertex="1" connectable="0">
          <mxGeometry x="0.0188" y="-1" relative="1" as="geometry">
            <mxPoint x="1" y="4" as="offset" />
          </mxGeometry>
        </mxCell>
        <mxCell id="Xv-uowMnBE21GLggtnpt-73" value="Get/Put" style="edgeLabel;html=1;align=center;verticalAlign=middle;resizable=0;points=[];" parent="Xv-uowMnBE21GLggtnpt-43" vertex="1" connectable="0">
          <mxGeometry x="-0.6671" y="2" relative="1" as="geometry">
            <mxPoint x="-2" y="15" as="offset" />
          </mxGeometry>
        </mxCell>
        <mxCell id="Xv-uowMnBE21GLggtnpt-44" style="edgeStyle=orthogonalEdgeStyle;rounded=0;orthogonalLoop=1;jettySize=auto;html=1;entryX=0.25;entryY=0;entryDx=0;entryDy=0;exitX=0.25;exitY=1;exitDx=0;exitDy=0;strokeColor=#0066CC;" parent="1" source="_0tyfMGEkezi1Wn5K47d-61" target="mKCn0pQEpmRzFZVJy1wr-110" edge="1">
          <mxGeometry relative="1" as="geometry" />
        </mxCell>
        <mxCell id="Xv-uowMnBE21GLggtnpt-61" value="IC/TCP" style="edgeLabel;html=1;align=center;verticalAlign=middle;resizable=0;points=[];fontColor=#0066CC;" parent="Xv-uowMnBE21GLggtnpt-44" vertex="1" connectable="0">
          <mxGeometry x="-0.1224" relative="1" as="geometry">
            <mxPoint y="9" as="offset" />
          </mxGeometry>
        </mxCell>
        <mxCell id="Xv-uowMnBE21GLggtnpt-74" value="ModifyScheme" style="edgeLabel;html=1;align=center;verticalAlign=middle;resizable=0;points=[];" parent="Xv-uowMnBE21GLggtnpt-44" vertex="1" connectable="0">
          <mxGeometry x="-0.4606" relative="1" as="geometry">
            <mxPoint y="7" as="offset" />
          </mxGeometry>
        </mxCell>
        <mxCell id="_0tyfMGEkezi1Wn5K47d-61" value="nfs-server-node" style="rounded=0;whiteSpace=wrap;html=1;fontSize=11;fillColor=#f5f5f5;strokeColor=#666666;fontColor=#333333;" parent="1" vertex="1">
          <mxGeometry x="-100" y="420" width="140" height="40" as="geometry" />
        </mxCell>
        <mxCell id="6k-ciNeuFFVRgkN2Ee7Q-1" value="instance node" style="rounded=0;whiteSpace=wrap;html=1;" parent="1" vertex="1">
          <mxGeometry x="400" y="210" width="90" height="20" as="geometry" />
        </mxCell>
      </root>
    </mxGraphModel>
  </diagram>
</mxfile>
